# xmcd
#
# Track frame offsets:
#	150
#	12948
#	30816
#	45599
#	69102
#	88418
#	110160
#	133685
#	152991
#	173438
#	194171
#	214128
#	237098
#	255397
#	272560
#	291880
#	307854
#	327443
#	345672
#
# Disc length: 4861 seconds
#
# Revision: 1
# Processed by: cddbd v1.5.2PL0 Copyright (c) Steve Scherf et al.
# Submitted via: audiograbber 1.83.01
#
DISCID=0b12fb13
DTITLE=FRQNCO DE VITA and RICARDO MONTANER - FLOGS MUSIC
DYEAR=1900
DGENRE=
TTITLE0=NO ARTIST - INTRO MIX FROGS
TTITLE1=FRANCO DE VITA - TAN SOLO TU
TTITLE2=RICARDO MONTANER - SOY FELIZ
TTITLE3=FRANCO DE VITA - LOUIS
TTITLE4=RICARDO MONTANER - LAS COSAS SON COMO SON
TTITLE5=FRANCO DE VITA - SERA
TTITLE6=RICARDO MONTANER - DEIAME LLORAR
TTITLE7=FRANCO DE VITA - BUEN PERDEDOR
TTITLE8=RICARDO MONTANER - LA CIMA DEL CIELO
TTITLE9=FRANCO DE VITA - NO BASTA
TTITLE10=RICARDO MONTNER - SI TUMERA QUE ELEGIR
TTITLE11=FRANCO DE VITA - SOLO ME IMPORTAS TU
TTITLE12=RICARDO MONTANER - EL PODER DE TU AMOR
TTITLE13=FRANCO DE VITA - TE AMO
TTITLE14=RICARDO MONTANER - TAN ENAMORADOS
TTITLE15=FRANCO DE VITA - NO HAY CIELO
TTITLE16=RICARDO MONTANER - ME VA EXTRANAR
TTITLE17=FRANCO DE VITA - TU DE QUE VAS
TTITLE18=FRANCO DE VITA - SILA VEZ
EXTD=kiroiva@hotmail.com
EXTT0=
EXTT1=
EXTT2=
EXTT3=
EXTT4=
EXTT5=
EXTT6=
EXTT7=
EXTT8=
EXTT9=
EXTT10=
EXTT11=
EXTT12=
EXTT13=
EXTT14=
EXTT15=
EXTT16=
EXTT17=
EXTT18=
PLAYORDER=
